<?xml version="1.0" standalone="no"?><!DOCTYPE svg PUBLIC "-//W3C//DTD SVG 1.1//EN" "http://www.w3.org/Graphics/SVG/1.1/DTD/svg11.dtd"><svg t="1685782480194" class="icon" viewBox="0 0 1024 1024" version="1.1" xmlns="http://www.w3.org/2000/svg" p-id="1697" xmlns:xlink="http://www.w3.org/1999/xlink" width="200" height="200"><path d="M51.2 51.2m153.6 0l609.28 0q153.6 0 153.6 153.6l0 609.28q0 153.6-153.6 153.6l-609.28 0q-153.6 0-153.6-153.6l0-609.28q0-153.6 153.6-153.6Z" fill="#F19149" opacity=".2" p-id="1698"></path><path d="M541.76768 547.97312v80.896c26.00448-5.41184 42.496-18.08384 42.496-34.44736 0.01024-10.22976-0.01024-29.42464-42.496-46.44864zM512 143.36a368.64 368.64 0 1 0 368.64 368.64 368.64 368.64 0 0 0-368.64-368.64z m29.76768 545.86368v32.03584a29.76768 29.76768 0 0 1-59.53536 0v-32.9216c-63.90784-12.83584-102.0416-65.46432-102.0416-104.62208a29.76768 29.76768 0 1 1 59.53024 0c0 8.63232 13.50144 32.49152 42.496 42.95168v-96.58368C396.672 501.76 389.46816 452.77696 389.46816 437.43232c0-32.09728 20.28032-89.50784 92.76416-102.14912v-32.54272a29.76768 29.76768 0 0 1 59.53536 0v32.5888A112.32768 112.32768 0 0 1 635.02848 429.568a29.76768 29.76768 0 0 1-59.0592 7.5008 51.58912 51.58912 0 0 0-34.2016-40.07936v87.82848c39.2704 11.776 102.0416 39.4752 102.0416 109.60384 0 41.16992-32.2048 85.06368-102.0416 94.80192zM449.024 437.43232c0.256 4.57728 7.68 17.02912 33.23392 28.84096V396.39552C451.98336 405.84704 449.024 429.056 449.024 437.43232z" fill="#F19149" p-id="1699"></path></svg>