<?xml version="1.0" standalone="no"?><!DOCTYPE svg PUBLIC "-//W3C//DTD SVG 1.1//EN" "http://www.w3.org/Graphics/SVG/1.1/DTD/svg11.dtd"><svg t="1685782631591" class="icon" viewBox="0 0 1024 1024" version="1.1" xmlns="http://www.w3.org/2000/svg" p-id="4763" xmlns:xlink="http://www.w3.org/1999/xlink" width="200" height="200"><path d="M51.2 51.2m153.6 0l609.28 0q153.6 0 153.6 153.6l0 609.28q0 153.6-153.6 153.6l-609.28 0q-153.6 0-153.6-153.6l0-609.28q0-153.6 153.6-153.6Z" fill="#F19149" opacity=".2" p-id="4764"></path><path d="M509.44 153.6A355.84 355.84 0 1 0 865.28 509.44 355.84 355.84 0 0 0 509.44 153.6z m26.84928 343.44448a44.32384 44.32384 0 0 1-14.2848 32.54272l-155.89888 143.36a28.73344 28.73344 0 1 1-38.912-42.29632l151.63392-139.42272V378.88a28.73344 28.73344 0 1 1 57.46176 0v118.16448z" fill="#F19149" p-id="4765"></path></svg>