<?xml version="1.0" standalone="no"?><!DOCTYPE svg PUBLIC "-//W3C//DTD SVG 1.1//EN" "http://www.w3.org/Graphics/SVG/1.1/DTD/svg11.dtd"><svg class="icon" width="200px" height="200.00px" viewBox="0 0 1024 1024" version="1.1" xmlns="http://www.w3.org/2000/svg"><path d="M538.36 181s136.57 59.79 169.23 258.93H369.13C401.78 240.81 538.36 181 538.36 181z" fill="#C7CFCF" /><path d="M721 437.74c-8.87-54.07-25-104-48-148.34a409.62 409.62 0 0 0-67.93-95.53c-45.67-47.59-86.54-65.81-88.26-66.56a13.62 13.62 0 0 0-10.93 0c-1.72 0.75-42.59 19-88.26 66.56a409.61 409.61 0 0 0-67.93 95.53c-23 44.36-39.1 94.27-48 148.34a13.62 13.62 0 0 0 13.44 15.83h182.66v54.5h-90.33a13.62 13.62 0 0 0 0 27.25h90.33v63.78h-90.33a13.62 13.62 0 0 0 0 27.25h90.33v63.78h-90.33a13.62 13.62 0 0 0 0 27.25h90.33v52.09l-118.67 79.58a13.62 13.62 0 1 0 15.18 22.63l117.12-78.55 117.12 78.55a13.62 13.62 0 1 0 15.18-22.63L525 769.46v-52.09h90.33a13.62 13.62 0 1 0 0-27.25H525v-63.78h90.33a13.62 13.62 0 1 0 0-27.25H525v-63.77h90.33a13.62 13.62 0 1 0 0-27.25H525v-54.5h182.58A13.62 13.62 0 0 0 721 437.74z m-389.5-11.42c8.73-44.8 22.83-86.29 42-123.54a383 383 0 0 1 62.86-89c29.65-31.14 59.4-50.65 75-58.81 15.63 8.17 45.38 27.67 75 58.81a383 383 0 0 1 62.86 89c19.17 37.24 33.27 78.74 42 123.54z" fill="#2A2B2B" /><path d="M511.41 245.88a63.46 63.46 0 1 0 63.46 63.46 63.54 63.54 0 0 0-63.46-63.46z m0 99.68a36.22 36.22 0 1 1 36.22-36.22 36.26 36.26 0 0 1-36.22 36.22z" fill="#2A2B2B" /></svg>